HIERARCHY
ROOT Hips
{
	OFFSET 0.00000 0.00000 0.00000
	CHANNELS 6 Xposition Yposition Zposition Zrotation Yrotation Xrotation 
	JOINT LHipJoint
	{
		OFFSET 0 0 0
		CHANNELS 3 Zrotation Yrotation Xrotation
		JOINT LeftUpLeg
		{
			OFFSET 1.36337 -1.57426 1.11036
			CHANNELS 3 Zrotation Yrotation Xrotation
			JOINT LeftLeg
			{
				OFFSET 2.38468 -6.55187 0.00000
				CHANNELS 3 Zrotation Yrotation Xrotation
				JOINT LeftFoot
				{
					OFFSET 2.37166 -6.51609 0.00000
					CHANNELS 3 Zrotation Yrotation Xrotation
					JOINT LeftToeBase
					{
						OFFSET 0.29078 -0.79891 2.01393
						CHANNELS 3 Zrotation Yrotation Xrotation
						End Site
						{
							OFFSET 0.00000 -0.00000 1.07924
						}
					}
				}
			}
		}
	}
	JOINT RHipJoint
	{
		OFFSET 0 0 0
		CHANNELS 3 Zrotation Yrotation Xrotation
		JOINT RightUpLeg
		{
			OFFSET -1.36349 -1.57426 1.11036
			CHANNELS 3 Zrotation Yrotation Xrotation
			JOINT RightLeg
			{
				OFFSET -2.29562 -6.30717 0.00000
				CHANNELS 3 Zrotation Yrotation Xrotation
				JOINT RightFoot
				{
					OFFSET -2.40985 -6.62100 0.00000
					CHANNELS 3 Zrotation Yrotation Xrotation
					JOINT RightToeBase
					{
						OFFSET -0.23197 -0.63733 1.92232
						CHANNELS 3 Zrotation Yrotation Xrotation
						End Site
						{
							OFFSET -0.00000 -0.00000 1.01562
						}
					}
				}
			}
		}
	}
	JOINT LowerBack
	{
		OFFSET 0 0 0
		CHANNELS 3 Zrotation Yrotation Xrotation
		JOINT Spine
		{
			OFFSET -0.08565 2.03602 -0.24562
			CHANNELS 3 Zrotation Yrotation Xrotation
			JOINT Spine1
			{
				OFFSET -0.00036 2.05693 0.00216
				CHANNELS 3 Zrotation Yrotation Xrotation
				JOINT Neck
				{
					OFFSET 0 0 0
					CHANNELS 3 Zrotation Yrotation Xrotation
					JOINT Neck1
					{
						OFFSET -0.03664 1.69515 0.31789
						CHANNELS 3 Zrotation Yrotation Xrotation
						JOINT Head
						{
							OFFSET 0.00932 1.70181 -0.46013
							CHANNELS 3 Zrotation Yrotation Xrotation
							End Site
							{
								OFFSET 0.01243 1.77620 -0.19377
							}
						}
					}
				}
				JOINT LeftShoulder
				{
					OFFSET 0 0 0
					CHANNELS 3 Zrotation Yrotation Xrotation
					JOINT LeftArm
					{
						OFFSET 3.74344 0.81315 -0.36647
						CHANNELS 3 Zrotation Yrotation Xrotation
						JOINT LeftForeArm
						{
							OFFSET 4.97185 -0.00000 -0.00000
							CHANNELS 3 Zrotation Yrotation Xrotation
							JOINT LeftHand
							{
								OFFSET 3.35811 -0.00000 0.00000
								CHANNELS 3 Zrotation Yrotation Xrotation
								JOINT LeftFingerBase
								{
									OFFSET 0 0 0
									CHANNELS 3 Zrotation Yrotation Xrotation
									JOINT LeftHandIndex1
									{
										OFFSET 0.62278 -0.00000 0.00000
										CHANNELS 3 Zrotation Yrotation Xrotation
										End Site
										{
											OFFSET 0.50210 -0.00000 0.00000
										}
									}
								}
								JOINT LThumb
								{
									OFFSET 0 0 0
									CHANNELS 3 Zrotation Yrotation Xrotation
									End Site
									{
										OFFSET 0.50976 -0.00000 0.50976
									}
								}
							}
						}
					}
				}
				JOINT RightShoulder
				{
					OFFSET 0 0 0
					CHANNELS 3 Zrotation Yrotation Xrotation
					JOINT RightArm
					{
						OFFSET -3.75385 0.50666 -0.06525
						CHANNELS 3 Zrotation Yrotation Xrotation
						JOINT RightForeArm
						{
							OFFSET -4.96493 -0.00000 -0.00000
							CHANNELS 3 Zrotation Yrotation Xrotation
							JOINT RightHand
							{
								OFFSET -3.34929 -0.00000 0.00000
								CHANNELS 3 Zrotation Yrotation Xrotation
								JOINT RightFingerBase
								{
									OFFSET 0 0 0
									CHANNELS 3 Zrotation Yrotation Xrotation
									JOINT RightHandIndex1
									{
										OFFSET -0.63804 -0.00000 0.00000
										CHANNELS 3 Zrotation Yrotation Xrotation
										End Site
										{
											OFFSET -0.51441 -0.00000 0.00000
										}
									}
								}
								JOINT RThumb
								{
									OFFSET 0 0 0
									CHANNELS 3 Zrotation Yrotation Xrotation
									End Site
									{
										OFFSET -0.52226 -0.00000 0.52226
									}
								}
							}
						}
					}
				}
			}
		}
	}
}
MOTION
Frames: 14
Frame Time: 0.111111
0.00 0.00 0.00 0 0 0 0 0 0 -21 0 0 0 0 0 0 0 0 0 0 0 0 0 0 21 0 0 0 0 0 0 0 0 0 0 0 0 0 0 0 0 0 0 0 0 0 0 -16 0 0 21 0 0 11 0 0 0 -8 0 0 0 0 0 0 0 0 0 0 0 0 0 0 0 0 0 0 0 0 8 0 0 0 0 0 0 0 0 0 0 0 0 0 0 0 0 0
0.00 0.00 0.00 174.7210 80.4930 195.1920 0.0000 0.0000 0.0000 -7.9007 -6.1761 -44.7553 4.4937 12.7899 38.5871 0.4403 4.6148 -15.0820 0.0127 -0.7284 -2.0019 0.0000 0.0000 0.0000 9.5707 -2.1086 -42.3425 -4.0712 -12.2545 36.6384 -0.6479 -7.2326 -19.5241 -0.0063 -0.5133 1.4104 0.0508 -1.5860 20.1191 1.0476 -1.2941 9.0031 1.3431 -0.3713 -1.5015 -3.9480 -0.0756 -28.6601 2.5601 1.1071 29.1242 1.9816 0.4778 14.8750 -0.0000 -0.0000 0.0000 -93.2956 -26.8051 104.3067 35.6190 -45.2491 -15.2513 -0.0000 0.0000 -21.1835 27.1165 -17.7539 -8.8751 -7.1250 0.0000 -0.0000 -0.5811 10.1960 0.4691 -0.0000 -0.0000 0.0000 83.6930 8.2087 34.9412 -17.0850 26.9697 -4.1258 0.0000 -0.0000 -44.8140 4.9835 -31.9398 -2.6412 7.1250 -0.0000 -0.0000 40.0984 -57.1251 -13.3560
0.00 0.00 0.00 14.6585 82.0715 33.1550 0.0000 0.0000 0.0000 -22.1316 4.4658 -43.1670 6.9522 15.2915 48.6934 2.1705 1.8641 -28.5729 0.0060 0.5011 1.3770 0.0000 0.0000 0.0000 11.3419 2.7827 -51.3371 -6.9539 -15.2930 48.6999 -0.6458 -9.1611 -21.1601 -0.1949 -2.8431 7.8422 -2.3071 -0.6914 18.1499 0.5193 -0.8047 7.9167 2.0018 -0.2713 -1.6323 -4.5749 -0.5693 -33.5528 1.2340 1.1156 22.9406 1.4568 0.2460 13.1749 0.0000 0.0000 0.0000 -92.9315 -28.0095 114.1121 34.1375 -44.1863 -14.2088 -0.0000 0.0000 -0.6856 35.5030 -15.3876 -10.7188 -7.1250 0.0000 -0.0000 5.2069 11.3608 -4.0966 0.0000 0.0000 0.0000 75.6531 5.9018 62.4651 -27.6452 38.7876 -9.9006 0.0000 -0.0000 -70.7946 7.5821 -40.8176 -4.9727 7.1250 -0.0000 -0.0000 53.0787 -62.8433 -26.7451
0.00 0.00 0.00 23.8751 71.3743 40.0722 0.0000 0.0000 0.0000 -28.2031 12.8235 -47.4930 10.8787 17.8752 62.3869 1.4184 1.6471 -23.1517 0.1141 -2.1777 -5.9970 0.0000 0.0000 0.0000 8.6550 2.2328 -51.5779 -7.8900 -16.0377 52.1654 -0.9304 -10.5730 -24.9172 -0.0170 0.8408 -2.3109 2.5741 -2.3084 19.0426 0.7399 -2.1031 7.7838 -0.2493 -0.8298 -2.3454 -0.4977 2.6777 -34.8577 -8.5915 7.1553 25.0540 -1.9099 1.6550 14.8426 0.0000 0.0000 0.0000 -94.4352 -27.6393 111.4935 33.7832 -43.9234 -13.9624 -0.0000 0.0000 -0.9093 33.4073 -19.9995 -12.7119 -7.1250 0.0000 -0.0000 3.1543 6.4527 -2.7841 0.0000 0.0000 0.0000 74.1257 6.3075 65.8673 -28.4644 39.5403 -10.4180 0.0000 -0.0000 -74.3031 7.5742 -42.4489 -5.1284 7.1250 -0.0000 -0.0000 55.5674 -63.8591 -29.6746
0.00 0.00 0.00 9.9865 -1.0264 18.5097 0.0000 0.0000 0.0000 -10.9680 -0.0477 -48.9473 3.3858 11.2949 33.2809 0.1786 9.7558 -16.5450 1.1540 -6.8206 -19.1848 0.0000 0.0000 0.0000 -3.5236 8.8249 -44.7465 -8.1538 -16.2312 53.1148 -1.8464 3.3551 -24.8539 -0.1710 2.6638 -7.3440 4.7417 -1.0613 25.5659 -0.5412 -0.2343 8.2332 -3.2434 -0.0697 -5.0682 4.4399 9.0198 -30.1571 -19.6572 16.8885 21.4187 -4.9502 5.0606 14.9387 0.0000 -0.0000 0.0000 -93.5930 -29.2974 114.2416 37.9992 -46.8388 -16.9650 -0.0000 0.0000 -7.6152 27.6110 -18.9981 -9.6628 -7.1250 0.0000 -0.0000 -0.3971 8.7470 0.3321 0.0000 -0.0000 0.0000 73.8336 5.3811 66.4710 -30.2791 41.1314 -11.5928 0.0000 -0.0000 -78.0038 3.7503 -37.1105 -2.2648 7.1250 -0.0000 -0.0000 44.5702 -61.3132 -19.8692
0.00 0.00 0.00 -1.8251 9.2519 14.2748 0.0000 0.0000 0.0000 -16.4305 -0.6121 -47.9591 11.9786 18.3816 65.9211 3.4487 -0.7897 -35.0359 0.0385 1.2661 3.4813 0.0000 0.0000 0.0000 1.8632 11.0929 -53.4155 -7.3757 -15.6403 50.2813 -0.3731 1.3239 -11.1517 -0.3046 3.5482 -9.8089 -3.5629 2.4126 30.9054 -2.8406 1.7583 8.4273 -1.7701 0.8915 -7.3992 7.7229 12.3640 -27.6288 -17.9340 19.5197 20.4460 -4.1011 6.8715 14.4382 0.0000 0.0000 0.0000 -87.8778 -30.8797 116.7341 45.9146 -51.2087 -22.9494 -0.0000 -0.0000 5.5548 26.8138 -15.4176 -7.6531 -7.1250 0.0000 -0.0000 -0.5524 12.8092 0.4162 0.0000 0.0000 0.0000 78.2973 2.7301 58.7025 -35.0787 44.8682 -14.8689 0.0000 -0.0000 -71.2563 6.9185 -36.8422 -4.1614 7.1250 -0.0000 -0.0000 47.1586 -60.3362 -20.2183
0.00 0.00 0.00 6.8813 29.3093 16.8819 0.0000 0.0000 0.0000 -15.0506 1.5926 -53.5374 16.8275 19.7570 80.6879 0.7385 -17.8389 -18.5594 0.0037 0.3905 1.0729 0.0000 0.0000 0.0000 -3.4784 6.3514 -58.0765 -12.8217 -18.7168 68.5707 -1.3472 -3.0168 -23.1954 -0.7412 5.4998 -15.3399 4.1446 -1.4923 31.6016 -0.7170 -0.4075 8.6633 -3.0778 -0.0905 -7.4859 7.0297 11.1335 -29.1883 -19.5556 18.8153 21.0649 -4.8168 6.2374 15.1259 -0.0000 0.0000 0.0000 -90.6062 -31.6351 115.5910 49.9637 -52.9808 -26.1452 -0.0000 -0.0000 2.1265 34.6860 -19.5680 -13.0502 -7.1250 0.0000 -0.0000 4.0262 6.6504 -3.5418 -0.0000 0.0000 0.0000 73.7613 1.3497 57.1029 -45.7160 51.1145 -22.7947 0.0000 -0.0000 -73.6792 -1.2527 -39.5125 0.7971 7.1250 -0.0000 -0.0000 43.0378 -64.3825 -22.1074
0.00 0.00 0.00 -2.8914 43.6978 12.7805 0.0000 0.0000 0.0000 -13.4575 0.0310 -60.9884 12.5962 18.6315 67.8664 1.9048 9.0788 -30.6585 0.1974 2.8612 7.8924 0.0000 0.0000 0.0000 3.1276 -6.6061 -37.0696 -8.1641 -16.2386 53.1515 -1.1589 -10.8676 -26.9295 -1.7262 8.2708 -23.5397 -1.5827 3.2061 33.9798 -4.0158 3.4891 8.3742 -4.6913 1.8757 -7.8821 8.1164 14.7296 -25.7938 -25.2611 23.6841 13.3660 -5.6759 8.6603 13.3200 -0.0000 0.0000 0.0000 -99.0070 -30.6391 124.4520 34.7024 -44.5985 -14.6040 -0.0000 0.0000 -1.9625 7.8508 -10.7553 -1.4740 -7.1250 0.0000 -0.0000 -13.5206 19.2751 8.5390 -0.0000 0.0000 0.0000 89.1697 0.0053 34.1046 -20.8449 31.6469 -5.9684 0.0000 -0.0000 -64.0374 14.9063 -37.9215 -9.2913 7.1250 -0.0000 -0.0000 55.5216 -59.1249 -23.5060
0.00 0.00 0.00 170.9950 44.3834 187.9880 0.0000 0.0000 0.0000 -12.7402 -3.8241 -49.5410 15.6126 19.5321 77.0754 -1.7819 -24.8206 -1.1331 0.1030 -2.0691 -5.6966 0.0000 0.0000 0.0000 -2.4766 6.8104 -54.9410 -11.0030 -17.9365 62.7913 -1.0812 -4.2909 -21.6291 -0.2196 3.0168 -8.3256 3.3999 -1.0383 30.8944 -2.8324 0.8170 8.1892 -5.5496 0.9396 -7.5916 7.1058 13.3632 -22.0063 -26.9514 23.7346 13.0103 -6.2294 9.1778 12.6852 -0.0000 0.0000 0.0000 -91.2274 -33.9495 120.2525 44.4038 -50.4730 -21.7779 -0.0000 -0.0000 0.3787 33.1602 -19.3947 -12.2420 -7.1250 0.0000 -0.0000 3.0929 7.1987 -2.6849 -0.0000 0.0000 0.0000 75.4013 2.3239 60.0327 -37.5466 46.5473 -16.6356 0.0000 -0.0000 -71.6891 -2.1557 -40.5727 1.4024 7.1250 -0.0000 -0.0000 43.7504 -65.4018 -23.5456
0.00 0.00 0.00 167.5580 37.7638 186.9030 0.0000 0.0000 0.0000 -9.7185 2.1051 -56.1423 11.9606 18.3739 65.8639 0.5955 0.4621 -14.7539 1.3451 -7.3428 -20.7350 0.0000 0.0000 0.0000 -2.7202 1.2720 -56.7051 -13.2952 -18.8862 70.0398 -1.9600 -2.5306 -27.4605 -0.0282 1.0842 -2.9806 2.4668 -1.0684 34.1820 -5.1127 0.7750 8.1984 -7.1588 1.1387 -8.3371 7.6721 13.9691 -20.8648 -27.8435 25.0280 13.0210 -6.3546 9.8330 12.9934 0.0000 -0.0000 0.0000 -92.1609 -32.7157 119.9517 45.1666 -50.8498 -22.3679 -0.0000 -0.0000 2.0356 34.0254 -20.6618 -13.3998 -7.1250 0.0000 -0.0000 3.4333 5.5510 -3.0908 0.0000 -0.0000 0.0000 75.0196 2.0713 62.2034 -37.6169 46.5929 -16.6867 0.0000 -0.0000 -75.4560 0.5618 -37.4795 -0.3418 7.1250 -0.0000 -0.0000 42.0243 -62.3985 -19.5695
0.00 0.00 0.00 37.6369 -71.9535 341.5490 0.0000 0.0000 0.0000 -6.2705 1.0139 -54.4110 5.4184 13.8400 42.6002 -0.0852 5.2023 -1.2889 1.0356 -6.4724 -18.1615 0.0000 0.0000 0.0000 -3.9821 5.8468 -53.2294 -12.6995 -18.6710 68.1895 -2.3877 -1.2341 -29.7023 -0.1478 2.4774 -6.8269 4.7454 -0.2273 29.6384 -3.4299 0.2658 6.7687 -6.7209 -0.1698 -8.6065 13.1088 21.7488 -13.2824 -25.2835 31.8452 9.1453 -4.7146 13.8210 11.6496 0.0000 0.0000 0.0000 -95.6702 -28.8877 112.9553 34.8817 -44.7275 -14.7300 -0.0000 0.0000 -3.2290 28.8654 -13.5027 -7.3342 -7.1250 0.0000 -0.0000 1.0101 14.6480 -0.7219 0.0000 0.0000 0.0000 86.7785 5.6505 42.5575 -22.9393 34.0224 -7.1043 0.0000 -0.0000 -61.5189 18.6214 -36.9051 -11.4386 7.1250 -0.0000 -0.0000 57.4003 -57.6114 -22.4852
0.00 0.00 0.00 -2.9496 30.9034 15.2793 0.0000 0.0000 0.0000 -10.5371 2.4123 -59.2082 11.7156 18.2678 65.0844 1.8047 2.8026 -26.5145 0.1361 2.3776 6.5505 0.0000 0.0000 0.0000 -0.4143 1.1464 -34.5479 -7.7686 -15.9464 51.7249 -0.2164 -12.3875 -20.1747 -1.5381 7.8292 -22.1965 -1.6175 1.7068 29.3708 -3.2810 1.5253 6.5285 -3.3169 0.8024 -8.7735 10.6825 17.9432 -18.0902 -24.5094 25.6348 6.4144 -5.5084 10.8856 9.8540 0.0000 0.0000 0.0000 -95.6419 -28.3584 114.1058 28.0256 -39.1398 -10.1398 -0.0000 0.0000 -4.6982 9.4159 -6.9965 -1.1572 -7.1250 0.0000 -0.0000 -12.6810 22.9270 6.9046 0.0000 0.0000 0.0000 90.9393 10.7898 22.3910 -8.9091 15.0154 -1.1765 0.0000 -0.0000 -29.6833 13.6305 -35.2640 -7.9696 7.1250 -0.0000 -0.0000 51.2779 -57.6690 -19.1714
0.00 0.00 0.00 -5.6033 38.4361 12.4983 0.0000 0.0000 0.0000 -14.4008 -1.8092 -40.2376 7.1291 15.4396 49.3609 2.2910 3.3163 -29.9314 0.0274 1.0693 2.9395 0.0000 0.0000 0.0000 5.2358 3.6374 -40.3011 -7.5823 -15.8033 51.0438 0.7356 -15.2640 -8.8326 -0.9258 6.1299 -17.1619 -5.4644 2.4557 16.0222 -1.3742 2.3750 4.6073 1.1725 1.2257 -4.2141 10.8582 17.7138 -15.9585 -21.3461 24.7832 6.5266 -4.9034 10.8421 8.8299 0.0000 -0.0000 0.0000 -80.9831 -23.1166 73.6478 25.9247 -37.1343 -8.8421 -0.0000 0.0000 -6.1967 17.8962 -12.2579 -3.9220 -7.1250 0.0000 -0.0000 -6.4843 17.1701 4.3089 0.0000 -0.0000 0.0000 85.1679 6.3485 31.5890 -13.6860 22.2841 -2.7079 0.0000 -0.0000 -19.0117 -6.2134 -28.9656 3.0181 7.1250 -0.0000 -0.0000 26.8701 -56.9928 -8.3045
0.00 0.00 0.00 -3.1174 44.3011 13.2927 0.0000 0.0000 0.0000 -16.7248 -4.1818 -31.8683 5.4115 13.8328 42.5716 2.2644 1.9434 -29.2007 0.1558 2.5430 7.0090 0.0000 0.0000 0.0000 6.3020 4.2594 -41.7989 -5.2879 -13.7008 42.0520 0.2367 -10.7841 -10.9082 -1.1228 6.7309 -18.9204 -6.3489 1.9283 11.2719 -1.0277 1.8842 3.6847 2.2457 0.9590 -2.6196 11.6181 16.8308 -15.5306 -20.6860 23.5217 7.4895 -5.1018 10.2835 8.8643 0.0000 -0.0000 0.0000 -81.6076 -23.0348 40.2034 16.4557 -26.1347 -3.8445 -0.0000 0.0000 -1.0557 26.7241 -9.1328 -4.5690 -7.1250 0.0000 -0.0000 -0.1495 19.7765 0.0901 0.0000 -0.0000 0.0000 84.1054 3.2448 30.1631 -15.6091 24.9878 -3.4792 0.0000 -0.0000 -22.5954 -5.1656 -29.6046 2.5571 7.1250 -0.0000 -0.0000 28.3960 -57.3357 -9.0702
